<svg width="128" height="128" viewBox="0 0 128 128" fill="none" xmlns="http://www.w3.org/2000/svg">
  <circle cx="64" cy="64" r="60" fill="#FFD23F" stroke="#1C1C1C" stroke-width="8"/>
  <path d="M40 70c-5.6 0-10 4.4-10 10s4.4 10 10 10 10-4.4 10-10-4.4-10-10-10zm0 16c-3.4 0-6-2.6-6-6s2.6-6 6-6 6 2.6 6 6-2.6 6-6 6z" fill="#9B59B6"/>
  <ellipse cx="50" cy="60" rx="16" ry="8" fill="#E74C3C"/>
  <path d="M64 40l-8 16h16z" fill="#3498DB"/>
  <circle cx="88" cy="56" r="6" fill="#F39C12"/>
  <path d="M76 76c0-6.6 5.4-12 12-12s12 5.4 12 12" stroke="#2ECC71" stroke-width="4" fill="none"/>
</svg>
